<svg width="24" height="24" viewBox="0 0 24 24" fill="none" xmlns="http://www.w3.org/2000/svg">
<path d="M5 4H12H19C20.6569 4 22 5.34315 22 7V14M19 20H12H5C3.34315 20 2 18.6569 2 17V12V10" stroke="#CED0D7" stroke-width="1.5" stroke-linecap="round"/>
<path fill-rule="evenodd" clip-rule="evenodd" d="M8.79487 9C7.80359 9 7 9.80359 7 10.7949V12.8462C7 13.8374 7.80359 14.641 8.79487 14.641H10.3333C10.7582 14.641 11.1026 14.2966 11.1026 13.8718C11.1026 13.447 10.7582 13.1026 10.3333 13.1026H8.79487C8.65326 13.1026 8.53846 12.9878 8.53846 12.8462V10.7949C8.53846 10.6533 8.65326 10.5385 8.79487 10.5385H10.3333C10.7582 10.5385 11.1026 10.1941 11.1026 9.76923C11.1026 9.3444 10.7582 9 10.3333 9H8.79487ZM14.436 9C13.4447 9 12.6411 9.80359 12.6411 10.7949V12.8462C12.6411 13.8374 13.4447 14.641 14.436 14.641H15.9744C16.3993 14.641 16.7437 14.2966 16.7437 13.8718C16.7437 13.447 16.3993 13.1026 15.9744 13.1026H14.436C14.2944 13.1026 14.1796 12.9878 14.1796 12.8462V10.7949C14.1796 10.6533 14.2944 10.5385 14.436 10.5385H15.9744C16.3993 10.5385 16.7437 10.1941 16.7437 9.76923C16.7437 9.3444 16.3993 9 15.9744 9H14.436Z" fill="#CED0D7"/>
<circle cx="1.5" cy="1.5" r="1.5" transform="matrix(-1 0 0 1 5 2.5)" stroke="#CED0D7" stroke-width="1.5"/>
<circle cx="1.5" cy="1.5" r="1.5" transform="matrix(-1 0 0 1 22 18.5)" stroke="#CED0D7" stroke-width="1.5"/>
</svg>
